<svg width="1024" height="1024" xmlns="http://www.w3.org/2000/svg">
  <defs>
    <linearGradient id="bg" x1="0%" y1="0%" x2="100%" y2="100%">
      <stop offset="0%" style="stop-color:#667eea"/>
      <stop offset="100%" style="stop-color:#764ba2"/>
    </linearGradient>
  </defs>
  
  <!-- Background -->
  <rect width="1024" height="1024" rx="180" fill="url(#bg)"/>
  
  <!-- Location pin -->
  <path d="M512 200 C380 200 280 300 280 430 C280 580 512 800 512 800 C512 800 744 580 744 430 C744 300 644 200 512 200 Z" fill="white" opacity="0.95"/>
  
  <!-- Pin inner circle -->
  <circle cx="512" cy="400" r="100" fill="#667eea"/>
  
  <!-- Checkmark in circle -->
  <path d="M470 400 L500 440 L560 360" stroke="white" stroke-width="24" stroke-linecap="round" stroke-linejoin="round" fill="none"/>
  
  <!-- Bell icon (small, bottom right) -->
  <circle cx="700" cy="700" r="120" fill="#FFD93D"/>
  <path d="M700 640 C660 640 640 670 640 700 L640 730 L760 730 L760 700 C760 670 740 640 700 640 Z" fill="#333"/>
  <circle cx="700" cy="750" r="20" fill="#333"/>
  <rect x="690" y="620" width="20" height="30" rx="10" fill="#333"/>
</svg>
